<?xml version="1.0" encoding="UTF-8"?>
<svg version="1.1" xmlns="http://www.w3.org/2000/svg" width="1080" height="1080">
<path d="M0 0 C356.4 0 712.8 0 1080 0 C1080 356.4 1080 712.8 1080 1080 C723.6 1080 367.2 1080 0 1080 C0 723.6 0 367.2 0 0 Z " fill="#EBECED" transform="translate(0,0)"/>
<path d="M0 0 C12.83970661 10.70640132 17.91891117 23.51577268 19.48828125 39.765625 C19.62253416 41.46833688 19.75141769 43.17148041 19.875 44.875 C19.94855713 45.69564941 20.02211426 46.51629883 20.09790039 47.36181641 C20.3476307 51.48173275 20.36642102 53.4097402 18.1328125 57.0078125 C13.44869186 61.38309002 7.79432269 60.2591659 1.67871094 60.29516602 C-0.36070992 60.31237939 -2.39850883 60.35626835 -4.4375 60.40039062 C-6.36722656 60.41295898 -6.36722656 60.41295898 -8.3359375 60.42578125 C-9.51720215 60.44036377 -10.6984668 60.45494629 -11.91552734 60.4699707 C-15.61261821 59.90665743 -16.72575901 58.89930308 -19 56 C-20.41715903 53.16568194 -20.1931532 50.59848514 -20.3125 47.4375 C-20.81528718 39.89569232 -21.99195174 34.00804826 -27.4375 28.5625 C-34.06263932 24.5227809 -40.35797751 23.97022392 -48 25 C-52.72020082 26.94994051 -55.89496122 29.33994175 -58.7265625 33.59375 C-60.42126117 38.12680903 -60.36397098 42.0810955 -60.25 46.875 C-60.24226563 48.16470703 -60.24226563 48.16470703 -60.234375 49.48046875 C-60.37206469 59.93594197 -60.37206469 59.93594197 -56 69 C-56 70.32 -56 71.64 -56 73 C-57.01578125 73.17015625 -58.0315625 73.3403125 -59.078125 73.515625 C-70.24284605 75.45175102 -80.80197015 77.53743578 -90.30859375 84.02734375 C-92.59195886 85.34041052 -94.42584985 85.40221096 -97 85 C-97 84.01 -97 83.02 -97 82 C-97.66 82 -98.32 82 -99 82 C-99.485864 80.48129302 -99.96331201 78.95989301 -100.4375 77.4375 C-100.70433594 76.59058594 -100.97117188 75.74367188 -101.24609375 74.87109375 C-106.3926984 55.27132993 -104.99955728 31.23173189 -95.125 13.5 C-94.1173016 11.9769723 -93.07649858 10.47520176 -92 9 C-91.23236328 7.94232422 -91.23236328 7.94232422 -90.44921875 6.86328125 C-70.36294213 -18.30448778 -24.4579766 -18.41759753 0 0 Z " fill="#0B0B0B" transform="translate(235,411)"/>
<path d="M0 0 C1.31834839 0.00858032 1.31834839 0.00858032 2.66333008 0.01733398 C14.08776787 0.32956901 22.97136433 4.68318905 31.25 12.5 C40.22965089 22.31496726 43.14425306 35.63436719 42.65625 48.5625 C41.33476271 61.3707614 36.49038397 73.10510972 26.8125 81.875 C17.00994449 89.62076931 5.61729812 91.68322553 -6.62890625 90.79003906 C-16.36429831 89.45881832 -25.9489788 84.57358104 -32.046875 76.859375 C-34.75 73.04537671 -34.75 73.04537671 -34.75 70.5 C-35.41 70.5 -36.07 70.5 -36.75 70.5 C-37.018125 69.819375 -37.28625 69.13875 -37.5625 68.4375 C-38.42270404 66.30962685 -39.34824592 64.20778881 -40.3125 62.125 C-45.12209588 49.99645386 -43.30494994 36.41933981 -38.75 24.5 C-38.09 23.84 -37.43 23.18 -36.75 22.5 C-36.358125 21.448125 -35.96625 20.39625 -35.5625 19.3125 C-32.28623867 11.47229254 -25.23890326 6.91148167 -17.75 3.5 C-17.18104004 3.23960937 -16.61208008 2.97921875 -16.02587891 2.7109375 C-10.65154112 0.45202144 -5.79819255 -0.04395521 0 0 Z " fill="#050505" transform="translate(760.75,539.5)"/>
<path d="M0 0 C9.92268596 5.29631263 16.72189275 13.1164762 21.11328125 23.43359375 C24.88368107 36.10460952 25.21775184 52.81161651 19.06640625 64.63671875 C18.41285156 65.94189453 18.41285156 65.94189453 17.74609375 67.2734375 C12.28548774 77.25470914 4.70042518 82.60058533 -5.6640625 86.72265625 C-15.22384546 89.39528374 -27.86543034 88.65911725 -36.93359375 84.63671875 C-46.47523554 79.25389751 -52.53174683 72.56052543 -56.93359375 62.63671875 C-57.49046875 61.46109375 -58.04734375 60.28546875 -58.62109375 59.07421875 C-63.3113888 46.79011266 -61.67141052 32.63527639 -56.93359375 20.63671875 C-55.23357458 17.33466422 -53.29602599 14.49680621 -50.93359375 11.63671875 C-50.43214844 11.0128125 -49.93070312 10.38890625 -49.4140625 9.74609375 C-37.4607713 -3.6322857 -16.30853328 -5.93605618 0 0 Z " fill="#040404" transform="translate(413.93359375,542.36328125)"/>
<path d="M0 0 C0.33 22.77 0.66 45.54 1 69 C10.20699813 58.95766636 10.20699813 58.95766636 18.9296875 48.5703125 C19.95449219 47.29800781 19.95449219 47.29800781 21 46 C21.60457031 44.91203125 22.20914063 43.8240625 22.83203125 42.703125 C24.84774765 40.29185135 25.94600956 40.00823397 29.11523438 39.52490234 C33.0258629 39.40828218 36.90547397 39.47668506 40.8125 39.625 C42.18679094 39.65511878 43.56114499 39.68249128 44.93554688 39.70703125 C48.29196969 39.77769278 51.64518065 39.87632295 55 40 C50.72341032 46.01630555 45.99159689 51.37630156 40.875 56.6875 C36.73419382 61.00685471 32.68280427 65.27602911 29 70 C27.33333333 71.66666667 25.66666667 73.33333333 24 75 C23.34 75.99 22.68 76.98 22 78 C22.78761719 78.80179688 23.57523437 79.60359375 24.38671875 80.4296875 C56 113.199134 56 113.199134 56 126 C46.76 126 37.52 126 28 126 C27.01 124.02 26.02 122.04 25 120 C19.01204408 110.28118906 12.33072528 100.85468383 4 93 C3.01 92.01 2.02 91.02 1 90 C0.67 101.88 0.34 113.76 0 126 C-8.25 126 -16.5 126 -25 126 C-25 85.41 -25 44.82 -25 3 C-10 0 -10 0 0 0 Z " fill="#080808" transform="translate(288,502)"/>
<path d="M0 0 C12.54 0 25.08 0 38 0 C38.00386719 7.35732422 38.00386719 7.35732422 38.0078125 14.86328125 C38.02279949 18.01246022 38.03955141 21.16144017 38.0625 24.31054688 C38.09858422 29.28455269 38.1289164 34.25802224 38.12011719 39.23217773 C38.05907533 65.1661893 38.05907533 65.1661893 45 90 C45 90.66 45 91.32 45 92 C45.66 92 46.32 92 47 92 C48.19140625 93.8359375 48.19140625 93.8359375 49.5625 96.375 C55.21333242 105.98277022 61.96206646 112.50540112 71.47851562 118.13305664 C73.01289689 119.04435927 74.51057525 120.01693729 76 121 C76 121.66 76 122.32 76 123 C60.62892907 127.39584311 41.1529038 124.28967926 27.0625 117.3125 C15.31835727 110.2449171 6.59380079 98.87764286 3.07543945 85.62719727 C2.30445893 82.4298849 1.63205683 79.22813207 1 76 C0.82308121 75.24830032 0.64616241 74.49660065 0.46388245 73.72212219 C-0.09993976 70.41354055 -0.11948835 67.27194045 -0.11352539 63.91479492 C-0.11367142 63.22156128 -0.11381744 62.52832764 -0.1139679 61.81408691 C-0.11327451 59.53618171 -0.10550915 57.25835957 -0.09765625 54.98046875 C-0.09579003 53.39577784 -0.09436709 51.81108635 -0.09336853 50.22639465 C-0.08955943 46.0655049 -0.07974292 41.90465032 -0.06866455 37.74377441 C-0.05661233 32.74604265 -0.05204053 27.7482991 -0.04621124 22.75055695 C-0.03653027 15.16701353 -0.01736248 7.58354724 0 0 Z " fill="#0D0D0D" transform="translate(107,527)"/>
<path d="M0 0 C7.19145476 5.8792394 9.76384407 12.30971235 11.55859375 21.28515625 C11.93689698 26.0248773 11.91016453 30.73208391 11.8515625 35.484375 C11.84731766 36.80057327 11.84307281 38.11677155 11.83869934 39.47285461 C11.82736965 42.93348003 11.79800883 46.39371389 11.7645874 49.85418701 C11.73362659 53.40078437 11.72013906 56.94744642 11.70507812 60.49414062 C11.67312438 67.42465399 11.62045736 74.35484588 11.55859375 81.28515625 C3.63859375 81.28515625 -4.28140625 81.28515625 -12.44140625 81.28515625 C-12.45598877 79.62540771 -12.47057129 77.96565918 -12.4855957 76.25561523 C-12.54366367 70.08482558 -12.62089716 63.91439756 -12.70385742 57.74389648 C-12.73869525 55.07556214 -12.76510951 52.40752235 -12.7878418 49.73901367 C-12.8214604 45.89862482 -12.87378266 42.05887123 -12.9296875 38.21875 C-12.93607742 37.02994736 -12.94246735 35.84114471 -12.9490509 34.61631775 C-13.05732691 28.48634249 -13.17277376 23.57063313 -16.44140625 18.28515625 C-22.76258305 13.97111131 -22.76258305 13.97111131 -37.44140625 14.28515625 C-37.44140625 36.39515625 -37.44140625 58.50515625 -37.44140625 81.28515625 C-45.69140625 81.28515625 -53.94140625 81.28515625 -62.44140625 81.28515625 C-62.44140625 53.89515625 -62.44140625 26.50515625 -62.44140625 -1.71484375 C-45.43865849 -10.21621763 -15.74400533 -11.05858935 0 0 Z " fill="#070707" transform="translate(883.44140625,546.71484375)"/>
<path d="M0 0 C7.92 0 15.84 0 24 0 C24.03738281 3.8053125 24.07476563 7.610625 24.11328125 11.53125 C24.15954023 15.23150258 24.21075817 18.93165575 24.26245117 22.63183594 C24.29563094 25.19622722 24.32368432 27.76069031 24.34643555 30.32519531 C24.3801085 34.01919042 24.43243307 37.7125316 24.48828125 41.40625 C24.49467117 42.5461438 24.5010611 43.6860376 24.50764465 44.86047363 C24.65347036 52.82075427 25.12247994 59.12247994 31 65 C36.94 65.33 42.88 65.66 49 66 C49 44.22 49 22.44 49 0 C57.25 0 65.5 0 74 0 C74 27.39 74 54.78 74 83 C62.78129136 85.58893276 53.10339282 87.23061896 41.79711914 87.29516602 C40.39597469 87.30667872 38.99487385 87.32711986 37.59399414 87.35668945 C25.92910368 87.60219391 17.52177077 86.16114578 8.7890625 78.0546875 C0.49100996 68.52460969 -0.29436411 57.44714993 -0.1953125 45.41015625 C-0.1924826 44.11049423 -0.18965271 42.81083221 -0.18673706 41.4717865 C-0.17914655 38.03750745 -0.15953823 34.60340093 -0.1373291 31.16918945 C-0.11677121 27.65643649 -0.1077142 24.14365531 -0.09765625 20.63085938 C-0.07628734 13.75382877 -0.04114328 6.87694046 0 0 Z " fill="#060606" transform="translate(507,542)"/>
<path d="M0 0 C0 8.25 0 16.5 0 25 C9.57 25 19.14 25 29 25 C29 31.6 29 38.2 29 45 C19.43 45 9.86 45 0 45 C0.07414595 50.30271406 0.15710435 55.60378617 0.26245117 60.90576172 C0.29561773 62.70775729 0.32367525 64.50985467 0.34643555 66.31201172 C0.38013432 68.90896823 0.43245649 71.50499866 0.48828125 74.1015625 C0.49467117 74.9017984 0.5010611 75.7020343 0.50764465 76.52651978 C0.63434582 81.39337876 1.35934263 84.76119009 4 89 C7.39307398 91.66153968 11.59367921 91.43643346 15.75 91.625 C16.44738281 91.66367187 17.14476562 91.70234375 17.86328125 91.7421875 C19.57510818 91.83598624 21.28751682 91.91906174 23 92 C23 91.34 23 90.68 23 90 C24.98 90 26.96 90 29 90 C31.64191295 96.51042834 32.31746964 102.01150172 32 109 C24.21504471 111.5083684 17.10249918 112.52089571 8.9375 112.5 C7.4205957 112.54253906 7.4205957 112.54253906 5.87304688 112.5859375 C-2.6071472 112.6077796 -9.05311413 110.4120275 -15.5078125 104.83203125 C-16.30832031 103.83236328 -16.30832031 103.83236328 -17.125 102.8125 C-17.96417969 101.80123047 -17.96417969 101.80123047 -18.8203125 100.76953125 C-20 99 -20 99 -20 97 C-20.66 97 -21.32 97 -22 97 C-24.78179777 85.67429214 -25.40569857 75.08989949 -25.29296875 63.47265625 C-25.2873566 61.74531935 -25.28309419 60.01797759 -25.28010559 58.29063416 C-25.26878401 53.79768114 -25.23943011 49.3050304 -25.20599365 44.81219482 C-25.17501519 40.20621832 -25.16154159 35.60019182 -25.14648438 30.99414062 C-25.11454495 21.99596271 -25.06350721 12.99800672 -25 4 C-20.45914264 2.67460062 -16.05489381 1.57865945 -11.375 0.875 C-10.28960938 0.70742188 -9.20421875 0.53984375 -8.0859375 0.3671875 C-5 0 -5 0 0 0 Z " fill="#070707" transform="translate(627,517)"/>
<path d="M0 0 C0.96848877 0.00652588 1.93697754 0.01305176 2.93481445 0.01977539 C10.09421805 0.15359041 16.46245206 0.98884927 23.25 3.375 C24.24 3.705 25.23 4.035 26.25 4.375 C26.11722656 5.16003906 25.98445312 5.94507813 25.84765625 6.75390625 C24.91757357 12.28687987 24.00808113 17.81573841 23.25 23.375 C13.25 21.375 13.25 21.375 10.76171875 20.8203125 C8.05159955 20.3398248 5.50149778 20.20682232 2.75 20.1875 C1.8321875 20.17332031 0.914375 20.15914062 -0.03125 20.14453125 C-3.21643024 20.41453934 -6.41372548 21.03872548 -8.75 23.375 C-9.25135199 25.74721956 -9.25135199 25.74721956 -8.75 28.375 C-3.82844225 33.33748547 2.95650187 35.3228912 9.32617188 37.84375 C17.21758999 41.07951427 24.45084392 45.08028276 29.25 52.375 C31.40329439 58.87823809 31.27281004 67.35639666 29.0625 73.8125 C24.47366355 82.83193716 19.57326064 84.95316498 10.25 88.375 C9.47406494 88.72103271 8.69812988 89.06706543 7.89868164 89.42358398 C3.27867823 91.0831059 -1.45051669 90.71200858 -6.3125 90.6875 C-7.38991455 90.68476074 -8.4673291 90.68202148 -9.57739258 90.67919922 C-19.13354105 90.55341286 -26.89668463 88.99180734 -35.75 85.375 C-35.12968409 78.79965139 -33.60102717 72.70807408 -31.75 66.375 C-27.82204475 66.78846897 -24.3525182 67.1803517 -20.58203125 68.3984375 C-15.95544778 69.57748528 -11.74911436 69.66904125 -7 69.625 C-6.15050781 69.63273438 -5.30101562 69.64046875 -4.42578125 69.6484375 C-3.20181641 69.64457031 -3.20181641 69.64457031 -1.953125 69.640625 C-0.84952637 69.63724121 -0.84952637 69.63724121 0.27636719 69.63378906 C2.5697885 69.48089782 2.5697885 69.48089782 5.25 67.375 C5.5002157 64.29134129 5.5002157 64.29134129 5.25 61.375 C2.7942428 60.11969979 0.33625035 58.86946166 -2.125 57.625 C-2.85581787 57.2552002 -3.58663574 56.88540039 -4.33959961 56.50439453 C-8.27358325 54.53675117 -12.17203088 52.75212368 -16.3125 51.25 C-23.34078654 48.52594935 -28.3920959 43.92469344 -31.875 37.2109375 C-34.09937213 30.00158854 -34.1698095 20.17849426 -30.75 13.375 C-23.3241947 2.97887258 -12.29409101 -0.17915852 0 0 Z " fill="#050505" transform="translate(947.75,539.625)"/>
<path d="M0 0 C0.71655762 -0.00555908 1.43311523 -0.01111816 2.17138672 -0.0168457 C6.87688343 0.0466248 10.86515349 0.85087505 15.375 2.3125 C16.49648437 2.59480469 16.49648437 2.59480469 17.640625 2.8828125 C24.60947584 4.83079837 29.78876373 8.83061347 35.375 13.3125 C36.19613281 13.96734375 37.01726562 14.6221875 37.86328125 15.296875 C44.30005561 20.70592908 48.72090501 26.76636896 52.375 34.3125 C52.09678694 28.88734523 49.82081674 25.63732666 46.75 21.36328125 C45.375 19.3125 45.375 19.3125 44.375 16.3125 C54.60174598 20.74710667 61.03851414 33.35948029 65.19335938 43.26318359 C67.95879243 50.42380685 70.18382986 57.60197122 70.375 65.3125 C70.42527344 66.39144531 70.47554688 67.47039062 70.52734375 68.58203125 C70.87938313 81.57932507 67.49658809 90.96081722 61.375 102.3125 C61.045 102.3125 60.715 102.3125 60.375 102.3125 C60.39594727 101.41120361 60.41689453 100.50990723 60.43847656 99.58129883 C60.50747241 96.17233649 60.5571905 92.76413722 60.59472656 89.35473633 C60.61459449 87.89139958 60.64169882 86.42813951 60.67675781 84.96508789 C61.11741708 66.07506174 55.41393695 49.36166089 42.375 35.3125 C39.4638741 32.53266904 36.47397042 29.88062827 33.375 27.3125 C34.47521484 28.39144531 34.47521484 28.39144531 35.59765625 29.4921875 C50.25799895 44.37934281 58.79078805 61.36258863 58.9375 82.375 C58.72719178 98.49909471 54.86168007 115.29228562 43.375 127.3125 C41.89 127.8075 41.89 127.8075 40.375 128.3125 C41.81243947 124.40781367 43.66344601 120.99614854 45.8125 117.4375 C51.24689476 108.10845566 53.79531352 101.27258598 52.375 90.3125 C49.64447817 82.05887721 44.28360593 75.01032227 39.23046875 68.02734375 C37.375 65.3125 37.375 65.3125 36.375 62.3125 C38.355 62.3125 40.335 62.3125 42.375 62.3125 C42.375 61.6525 42.375 60.9925 42.375 60.3125 C41.66988281 60.07402344 40.96476562 59.83554687 40.23828125 59.58984375 C36.88667924 58.09465431 34.40485197 56.19225883 31.5625 53.875 C30.58667969 53.09253906 29.61085937 52.31007813 28.60546875 51.50390625 C27.86941406 50.78074219 27.13335937 50.05757812 26.375 49.3125 C26.375 48.3225 26.375 47.3325 26.375 46.3125 C28.355 46.3125 30.335 46.3125 32.375 46.3125 C32.375 45.6525 32.375 44.9925 32.375 44.3125 C31.58609375 44.25320313 30.7971875 44.19390625 29.984375 44.1328125 C25.01583275 43.00359835 21.03688775 40.6828019 16.625 38.1875 C15.72539551 37.68613525 14.82579102 37.18477051 13.89892578 36.66821289 C8.7309242 33.75376041 3.84199186 30.67188983 -0.92578125 27.13671875 C-6.89687132 23.10126425 -13.36103882 19.82713729 -19.68603516 16.38476562 C-22.03529803 15.08560137 -24.33816526 13.71837844 -26.625 12.3125 C-24.90753349 7.16010046 -20.30639224 4.72908458 -15.76171875 2.328125 C-10.59452836 0.20104857 -5.51202318 0.03617747 0 0 Z " fill="#101010" transform="translate(172.625,489.6875)"/>
<path d="M0 0 C0.00364563 1.25423264 0.00729126 2.50846527 0.01104736 3.80070496 C0.04797661 15.61636773 0.1057268 27.43176939 0.18390274 39.24723339 C0.22342438 45.32181573 0.25559 51.39625209 0.27099609 57.47094727 C0.28613159 63.33256842 0.32052237 69.19378835 0.36830902 75.05523109 C0.38315482 77.29230577 0.39104284 79.52943773 0.39188385 81.76656151 C0.39424557 84.89843988 0.42126222 88.02920228 0.45410156 91.16088867 C0.4490712 92.08733688 0.44404083 93.0137851 0.43885803 93.9683075 C0.50704986 98.16732463 0.63955481 100.42014748 2.90032959 104.05708313 C5.09912762 106.09172712 6.3384018 106.778707 9.25 107.3125 C10.4875 107.539375 11.725 107.76625 13 108 C13.48452463 114.94485303 11.69287491 121.2990368 10 128 C-0.15684773 128.58131402 -9.24610092 127.8516499 -17.625 121.5625 C-20.08827711 118.90475365 -20.79593517 117.57113449 -21 114 C-21.66 114 -22.32 114 -23 114 C-25.01958453 108.14209201 -25.27432896 102.91736416 -25.22705078 96.75024414 C-25.22734283 95.74460419 -25.22763489 94.73896423 -25.22793579 93.70285034 C-25.2265485 90.39686288 -25.21101549 87.09110408 -25.1953125 83.78515625 C-25.19158024 81.4858767 -25.18873427 79.18659555 -25.18673706 76.88731384 C-25.17911742 70.84898452 -25.15948321 64.8107521 -25.1373291 58.77246094 C-25.11683473 52.60548208 -25.10772766 46.4384875 -25.09765625 40.27148438 C-25.07623579 28.18094712 -25.04211996 16.09048163 -25 4 C-22.45847565 3.52006844 -19.91678778 3.04103273 -17.375 2.5625 C-16.66214844 2.42779297 -15.94929688 2.29308594 -15.21484375 2.15429688 C-3.76028963 0 -3.76028963 0 0 0 Z " fill="#060606" transform="translate(481,501)"/>
<path d="M0 0 C7.92 0 15.84 0 24 0 C24 28.05 24 56.1 24 85 C16.08 85 8.16 85 0 85 C0 56.95 0 28.9 0 0 Z " fill="#040404" transform="translate(676,542)"/>
<path d="M0 0 C3.5 1.75 3.5 1.75 6 4 C6.7425 4.61875 7.485 5.2375 8.25 5.875 C13.32243599 12.03438656 12.62163383 20.47149974 12.19970703 28.02734375 C11.57268833 34.2208781 9.40291314 39.28143141 5.5 44.0625 C0.11337765 48.23713232 -4.29530741 48.69772411 -11 48 C-15.19219408 46.26844157 -17.60582628 43.83067795 -20 40 C-23.70645819 30.76553366 -25.12364082 19.43779159 -21.4375 10 C-16.47373708 0.81102711 -10.3313664 -1.69555109 0 0 Z " fill="#D5D6D8" transform="translate(401,561)"/>
<path d="M0 0 C1.54300781 -0.02513672 1.54300781 -0.02513672 3.1171875 -0.05078125 C8.74960245 0.62949744 12.59944651 4.02466468 16.125 8.3125 C19.45022598 16.70473701 19.92175362 29.09265118 16.4375 37.5 C13.77054412 42.43810912 10.33930057 46.12306993 5.125 48.3125 C0.97336261 48.88437134 -2.7344809 48.77907599 -6.625 47.1875 C-13.596249 41.37812583 -16.30332783 35.31897335 -17.16015625 26.31640625 C-17.39349973 18.35229173 -16.4509422 11.23909672 -11.375 4.875 C-7.53457327 0.9385626 -5.39781656 0.02019133 0 0 Z " fill="#DADBDD" transform="translate(759.875,560.6875)"/>
<path d="M0 0 C4.93173575 4.19117248 7.27613807 7.36261461 7.94873047 13.78076172 C8.25963117 19.95242141 8.02401963 26.0982579 7.77587891 32.26806641 C7.72565904 34.43853678 7.68004207 36.60911882 7.63916016 38.77978516 C7.52956084 44.07000219 7.36276859 49.35601036 7.15087891 54.64306641 C6.16087891 54.14806641 6.16087891 54.14806641 5.15087891 53.64306641 C5.15087891 52.98306641 5.15087891 52.32306641 5.15087891 51.64306641 C4.55275391 51.53994141 3.95462891 51.43681641 3.33837891 51.33056641 C0.75702318 50.51928318 -0.18429233 49.76193938 -1.84912109 47.64306641 C-3.20513146 44.70504394 -4.14787675 41.79866596 -4.84912109 38.64306641 C-5.43306641 38.56958984 -6.01701172 38.49611328 -6.61865234 38.42041016 C-9.65145556 37.36344371 -10.62924688 35.76872547 -12.53662109 33.20556641 C-16.17409869 28.4446494 -20.06708127 24.04551433 -24.16162109 19.67431641 C-25.84912109 17.64306641 -25.84912109 17.64306641 -25.84912109 15.64306641 C-26.50912109 15.64306641 -27.16912109 15.64306641 -27.84912109 15.64306641 C-29.57568359 13.96337891 -29.57568359 13.96337891 -31.47412109 11.76806641 C-32.10576172 11.04876953 -32.73740234 10.32947266 -33.38818359 9.58837891 C-34.84912109 7.64306641 -34.84912109 7.64306641 -34.84912109 5.64306641 C-35.83912109 5.97306641 -36.82912109 6.30306641 -37.84912109 6.64306641 C-38.17912109 5.98306641 -38.50912109 5.32306641 -38.84912109 4.64306641 C-34.84915665 3.77945077 -30.8472915 2.92531824 -26.84350586 2.07958984 C-25.48423938 1.79111881 -24.12550088 1.50014742 -22.76733398 1.20654297 C-20.8051497 0.78283222 -18.84081621 0.36911406 -16.87646484 -0.04443359 C-15.69818115 -0.29580078 -14.51989746 -0.54716797 -13.3059082 -0.80615234 C-8.41146811 -1.58599957 -4.56852547 -2.17582387 0 0 Z " fill="#DBDCDE" transform="translate(1072.84912109375,803.35693359375)"/>
<path d="M0 0 C22.58728295 -2.18885336 22.58728295 -2.18885336 30.0871582 3.58105469 C32.48653091 5.72816563 34.8036645 7.94439831 37.08935547 10.21191406 C40.58571556 13.48399958 44.49522522 16.20474296 48.375 19 C49.16817627 19.58128662 49.96135254 20.16257324 50.77856445 20.76147461 C57.00903206 25.32330453 63.3092675 29.78556711 69.65771484 34.18164062 C70.64698975 34.8709668 70.64698975 34.8709668 71.65625 35.57421875 C72.23181641 35.97213623 72.80738281 36.37005371 73.40039062 36.7800293 C75.0865443 38.06600456 76.534889 39.46977912 78 41 C75.3122562 40.85790331 72.62486698 40.7114277 69.9375 40.5625 C68.80924805 40.50352539 68.80924805 40.50352539 67.65820312 40.44335938 C66.54155273 40.38051758 66.54155273 40.38051758 65.40234375 40.31640625 C64.72679443 40.27974854 64.05124512 40.24309082 63.35522461 40.20532227 C62.57800049 40.13756592 61.80077637 40.06980957 61 40 C59.31668579 39.85449707 59.31668579 39.85449707 57.59936523 39.70605469 C53.61361391 38.92420616 51.34949248 37.66518655 48.0078125 35.38671875 C47.46413528 35.02091705 46.92045807 34.65511536 46.36030579 34.27822876 C44.60653366 33.09353917 42.86583581 31.89109873 41.125 30.6875 C39.91349247 29.86321927 38.70132923 29.03990151 37.48852539 28.2175293 C28.81995742 22.32265908 20.22618793 16.31909288 11.70703125 10.21044922 C8.37633292 7.84866399 4.98357753 5.57470577 1.58984375 3.3046875 C1.06519531 2.87414062 0.54054688 2.44359375 0 2 C0 1.34 0 0.68 0 0 Z " fill="#E6E7E9" transform="translate(278,1)"/>
<path d="M0 0 C5.13308791 2.61320839 8.1797908 5.53937241 10 11 C10.50247331 14.76854983 10.83718859 18.41269044 9.0234375 21.8515625 C6.10932989 25.48078854 3.25887199 27.71298161 -1.3671875 28.30078125 C-6.65796843 28.32550453 -10.46928497 28.05823265 -15 25 C-17 22 -17 22 -17 19 C-17.66 19 -18.32 19 -19 19 C-19.91299937 10.5970243 -19.91299937 10.5970243 -17.76953125 6.84765625 C-12.4740561 0.66306428 -8.09481161 -1.03391675 0 0 Z " fill="#030303" transform="translate(692,503)"/>
<path d="M0 0 C0.87462891 -0.00386719 1.74925781 -0.00773437 2.65039062 -0.01171875 C3.56111328 -0.00011719 4.47183594 0.01148438 5.41015625 0.0234375 C6.77043945 0.00603516 6.77043945 0.00603516 8.15820312 -0.01171875 C9.03412109 -0.00785156 9.91003906 -0.00398438 10.8125 0 C11.61034912 0.00338379 12.40819824 0.00676758 13.23022461 0.01025391 C16.06108537 0.50029948 17.43582907 1.38628522 19.47265625 3.3984375 C19.76826701 6.26881802 19.85208641 8.73598495 19.72265625 11.5859375 C19.70460937 12.33552734 19.6865625 13.08511719 19.66796875 13.85742188 C19.62089734 15.7049746 19.54915391 17.55186909 19.47265625 19.3984375 C14.85661401 22.04908384 10.61194773 21.7294229 5.41015625 21.7109375 C4.49943359 21.72705078 3.58871094 21.74316406 2.65039062 21.75976562 C1.77576172 21.76041016 0.90113281 21.76105469 0 21.76171875 C-1.19508179 21.76619019 -1.19508179 21.76619019 -2.41430664 21.77075195 C-5.06985317 21.30284803 -5.94496982 20.55689881 -7.52734375 18.3984375 C-7.82604059 15.79801795 -7.94679532 13.49144591 -7.90234375 10.8984375 C-7.91394531 10.22167969 -7.92554687 9.54492188 -7.9375 8.84765625 C-7.90832718 3.91744972 -7.90832718 3.91744972 -6.28540039 1.70654297 C-4.05253735 0.04515147 -2.76557216 0.01174578 0 0 Z " fill="#111111" transform="translate(118.52734375,500.6015625)"/>
<path d="M0 0 C3.79027974 3.58831101 6.8524845 7.38379714 9.8125 11.6875 C13.53061669 17.02653265 17.4366382 22.08698977 21.69921875 27.01171875 C22.12847656 27.66785156 22.55773437 28.32398438 23 29 C22 32 22 32 20 33 C15.48070346 33.41593526 11.35212967 33.55848834 7.125 31.8125 C3.43599227 28.66599341 0.88772697 25.81393848 0 21 C-0.07911543 19.34010718 -0.10778885 17.6773713 -0.09765625 16.015625 C-0.09443359 15.08105469 -0.09121094 14.14648438 -0.08789062 13.18359375 C-0.07951172 12.21550781 -0.07113281 11.24742187 -0.0625 10.25 C-0.05798828 9.26644531 -0.05347656 8.28289063 -0.04882812 7.26953125 C-0.03706483 4.84629209 -0.02062684 2.42317727 0 0 Z " fill="#E7E8E9" transform="translate(380,576)"/>
<path d="M0 0 C0.66 0.33 1.32 0.66 2 1 C1.67 28.39 1.34 55.78 1 84 C9.25 84 17.5 84 26 84 C26 61.89 26 39.78 26 17 C31.28 17 36.56 17 42 17 C42 17.33 42 17.66 42 18 C37.05 18 32.1 18 27 18 C27.08541091 26.57094969 27.17911298 35.14168457 27.28752708 43.71236992 C27.33753106 47.69183727 27.38386047 51.67127753 27.421875 55.65087891 C27.45867637 59.48946882 27.50502175 63.3278344 27.55806351 67.16623306 C27.57663497 68.63265178 27.59173272 70.09911863 27.60334396 71.56560898 C27.62015988 73.61542621 27.64918198 75.66472656 27.68115234 77.71435547 C27.69447601 78.88239716 27.70779968 80.05043884 27.7215271 81.25387573 C27.72226567 84.14370572 27.72226567 84.14370572 30 86 C30 87.32 30 88.64 30 90 C23.72118978 89.56854469 18.00599333 88.87687292 12 87 C11.01 87 10.02 87 9 87 C6.5133789 86.75954176 4.04151369 86.48935497 1.5625 86.1875 C0.55993164 86.08211914 0.55993164 86.08211914 -0.46289062 85.97460938 C-4.41320763 85.48522422 -7.16239338 84.88115046 -10 82 C-10 81.34 -10 80.68 -10 80 C-8.02 79.01 -8.02 79.01 -6 78 C-6 77.01 -6 76.02 -6 75 C-5.01 74.505 -5.01 74.505 -4 74 C-4.33 73.01 -4.66 72.02 -5 71 C-3.66666667 71 -2.33333333 71 -1 71 C-0.67 47.57 -0.34 24.14 0 0 Z " fill="#CBCBCD" transform="translate(820,544)"/>
<path d="M0 0 C13.61099244 6.26346555 21.78171927 20.51056613 27.13476562 33.82177734 C30.40794476 43.27988817 30.47140061 51.95077381 30.25 61.8125 C30.22987816 63.39125305 30.21163756 64.97003125 30.1953125 66.54882812 C30.15182584 70.36652168 30.08312482 74.18297231 30 78 C27.03 78.99 27.03 78.99 24 80 C24.14230808 78.58297487 24.28900746 77.1663904 24.4375 75.75 C24.51871094 74.96109375 24.59992188 74.1721875 24.68359375 73.359375 C25 71 25 71 25.50268555 69.14038086 C29.50737625 51.90467964 24.8825118 33.47949376 16.01586914 18.62109375 C11.90226684 12.0501528 7.32570587 7.02557142 1.3203125 2.1640625 C0.88460937 1.77992188 0.44890625 1.39578125 0 1 C0 0.67 0 0.34 0 0 Z " fill="#D1D2D2" transform="translate(204,516)"/>
<path d="M0 0 C0.66 0.515625 1.32 1.03125 2 1.5625 C6.14659826 3.54941167 8.53020565 2.83335149 13 2 C12.731875 3.0725 12.46375 4.145 12.1875 5.25 C12.0946875 7.10625 12.0946875 7.10625 12 9 C14.34079757 11.35647001 14.34079757 11.35647001 17 13 C17 13.66 17 14.32 17 15 C12.545 15.495 12.545 15.495 8 16 C7.01 18.475 7.01 18.475 6 21 C5.34 21 4.68 21 4 21 C3.67 18.69 3.34 16.38 3 14 C0.36 14 -2.28 14 -5 14 C-5 13.01 -5 12.02 -5 11 C-4.175 10.608125 -3.35 10.21625 -2.5 9.8125 C0.18381733 8.31216562 0.18381733 8.31216562 0.33203125 6.03125 C0.31430781 4.01786716 0.16448614 2.0067309 0 0 Z " fill="#181818" transform="translate(188,629)"/>
<path d="M0 0 C0.66 0.33 1.32 0.66 2 1 C1.99666908 2.55308365 1.99666908 2.55308365 1.99327087 4.13754272 C1.97302891 13.87900589 1.95802275 23.6204648 1.94818783 33.3619442 C1.94296169 38.3705368 1.9358689 43.37911246 1.92456055 48.38769531 C1.91372214 53.21817822 1.90772113 58.04864482 1.90512276 62.87913895 C1.90327024 64.72518801 1.89965291 66.57123615 1.89426994 68.41727829 C1.88704688 70.99614161 1.8860096 73.57493685 1.88647461 76.15380859 C1.88287933 76.92272934 1.87928406 77.69165009 1.87557983 78.48387146 C1.80736367 82.36963421 1.80736367 82.36963421 3 86 C-6.88344059 85.38756458 -6.88344059 85.38756458 -10 82 C-10 81.34 -10 80.68 -10 80 C-8.02 79.01 -8.02 79.01 -6 78 C-6 77.01 -6 76.02 -6 75 C-5.01 74.505 -5.01 74.505 -4 74 C-4.33 73.01 -4.66 72.02 -5 71 C-3.66666667 71 -2.33333333 71 -1 71 C-0.67 47.57 -0.34 24.14 0 0 Z " fill="#D8D9DB" transform="translate(820,544)"/>
<path d="M0 0 C12.67610128 5.83325015 20.55925398 18.73297636 26 31 C26.35320312 31.79148437 26.70640625 32.58296875 27.0703125 33.3984375 C28.5799773 37.05699454 29.19669888 39.23658836 28 43 C27.67 42.01 27.34 41.02 27 40 C26.01 40.495 26.01 40.495 25 41 C24.731875 40.06800781 24.46375 39.13601563 24.1875 38.17578125 C19.89416206 23.95785225 13.02189708 11.67663707 1.35546875 2.19921875 C0.90816406 1.80347656 0.46085938 1.40773438 0 1 C0 0.67 0 0.34 0 0 Z " fill="#B1B2B3" transform="translate(204,516)"/>
<path d="M0 0 C0 33 0 66 0 100 C-0.33 100 -0.66 100 -1 100 C-1.33 67.99 -1.66 35.98 -2 3 C-4.31 2.67 -6.62 2.34 -9 2 C-9 1.67 -9 1.34 -9 1 C-5.94152152 0.45627049 -3.11227195 0 0 0 Z " fill="#636465" transform="translate(481,501)"/>
<path d="M0 0 C0.33 0 0.66 0 1 0 C2.38795924 10.18294848 2.49415137 16.98790987 -3 26 C-3.5053125 26.85980469 -4.010625 27.71960938 -4.53125 28.60546875 C-8.63330003 35.18758474 -8.63330003 35.18758474 -13 37 C-11.56256053 33.09531367 -9.71155399 29.68364854 -7.5625 26.125 C-2.3056401 17.13041434 -0.45348991 10.39899271 0 0 Z " fill="#505050" transform="translate(226,581)"/>
<path d="M0 0 C0 3.63 0 7.26 0 11 C-6.75 5.375 -6.75 5.375 -9 2 C-2.25 0 -2.25 0 0 0 Z " fill="#DCDDDF" transform="translate(1080,799)"/>
<path d="M0 0 C0 2.33333333 0 4.66666667 0 7 C-2 9 -2 9 -5.5625 9.5 C-7.2640625 9.7475 -7.2640625 9.7475 -9 10 C-9.33 10.66 -9.66 11.32 -10 12 C-11.65 11.67 -13.3 11.34 -15 11 C-13.61971938 8.23943877 -11.96728638 7.90296914 -9.1875 6.625 C-5.48441775 4.83967994 -2.6409924 3.24121794 0 0 Z " fill="#C0C1C2" transform="translate(791,617)"/>
<path d="M0 0 C3.66786393 1.50349377 5.68910393 3.63728792 8.25 6.625 C8.95640625 7.44226563 9.6628125 8.25953125 10.390625 9.1015625 C10.92171875 9.72804688 11.4528125 10.35453125 12 11 C11.67 11.66 11.34 12.32 11 13 C10.34 12.67 9.68 12.34 9 12 C8.67 12.99 8.34 13.98 8 15 C7.67386719 14.31292969 7.34773437 13.62585938 7.01171875 12.91796875 C6.57472656 12.01691406 6.13773438 11.11585938 5.6875 10.1875 C5.25824219 9.29417969 4.82898438 8.40085937 4.38671875 7.48046875 C3.11021226 5.19714024 1.8456512 3.80235146 0 2 C0 1.34 0 0.68 0 0 Z " fill="#474847" transform="translate(217,506)"/>
<path d="M0 0 C0.90105469 0.01804687 1.80210937 0.03609375 2.73046875 0.0546875 C3.41753906 0.07789063 4.10460937 0.10109375 4.8125 0.125 C4.8125 0.455 4.8125 0.785 4.8125 1.125 C4.23242188 1.12757813 3.65234375 1.13015625 3.0546875 1.1328125 C-1.57313743 1.36191274 -4.35715693 1.74126351 -7.625 5.1875 C-8.470625 6.156875 -9.31625 7.12625 -10.1875 8.125 C-10.8475 8.125 -11.5075 8.125 -12.1875 8.125 C-12.5175 11.755 -12.8475 15.385 -13.1875 19.125 C-13.5175 19.125 -13.8475 19.125 -14.1875 19.125 C-15.10049937 10.7220243 -15.10049937 10.7220243 -12.95703125 6.97265625 C-9.11337841 2.48364936 -6.11904186 -0.15893615 0 0 Z " fill="#424343" transform="translate(687.1875,502.875)"/>
<path d="M0 0 C7.82676158 3.58291752 13.21938965 10.02827657 18 17 C17.34 17.66 16.68 18.32 16 19 C15.5153125 18.28714844 15.030625 17.57429687 14.53125 16.83984375 C10.62302633 11.25559338 6.79054519 6.52009209 1.46875 2.2421875 C0.9840625 1.83226562 0.499375 1.42234375 0 1 C0 0.67 0 0.34 0 0 Z " fill="#9C9D9C" transform="translate(204,516)"/>
<path d="M0 0 C3.71134205 3.1994328 5.42930118 6.3705719 7 11 C6.6875 13.4375 6.6875 13.4375 6 15 C5.4121875 14.01 5.4121875 14.01 4.8125 13 C2.58182845 9.30785399 0.29352544 5.65332313 -2 2 C-1.34 2 -0.68 2 0 2 C0 1.34 0 0.68 0 0 Z " fill="#B3B5B4" transform="translate(219,510)"/>
<path d="M0 0 C1.63001953 0.02707031 1.63001953 0.02707031 3.29296875 0.0546875 C4.54013672 0.08949219 4.54013672 0.08949219 5.8125 0.125 C5.8125 0.455 5.8125 0.785 5.8125 1.125 C4.74322266 1.0940625 4.74322266 1.0940625 3.65234375 1.0625 C-2.33212888 1.13276681 -2.33212888 1.13276681 -7.40625 3.97265625 C-8.60383565 5.41128139 -9.7551172 6.89021806 -10.84765625 8.41015625 C-11.51087891 9.25900391 -11.51087891 9.25900391 -12.1875 10.125 C-12.8475 10.125 -13.5075 10.125 -14.1875 10.125 C-14.5175 11.115 -14.8475 12.105 -15.1875 13.125 C-14.75322515 8.20321839 -12.49654303 5.67040325 -9.1875 2.125 C-5.66070901 -0.22619399 -4.15870515 -0.08943452 0 0 Z " fill="#B1B2B4" transform="translate(760.1875,560.875)"/>
<path d="M0 0 C1.93884889 0.28256092 3.87605961 0.5763793 5.8125 0.875 C6.89144531 1.03742187 7.97039063 1.19984375 9.08203125 1.3671875 C12 2 12 2 15 4 C12.37050204 5.71928713 11.12809053 6.01045637 7.9375 5.75 C5 5 5 5 2 3 C1.34 2.67 0.68 2.34 0 2 C0 1.34 0 0.68 0 0 Z " fill="#E6E7E9" transform="translate(906,642)"/>
<path d="M0 0 C9.57 0 19.14 0 29 0 C27 2 27 2 24.54150391 2.1953125 C23.53007324 2.17210937 22.51864258 2.14890625 21.4765625 2.125 C20.373125 2.10953125 19.2696875 2.0940625 18.1328125 2.078125 C15.80207945 2.02621558 13.47135025 1.97413341 11.140625 1.921875 C10.03460938 1.90640625 8.92859375 1.8909375 7.7890625 1.875 C6.77537598 1.85179687 5.76168945 1.82859375 4.71728516 1.8046875 C1.94902381 2.00366406 0.3519967 2.57548218 -2 4 C-1.34 2.68 -0.68 1.36 0 0 Z " fill="#262627" transform="translate(314,542)"/>
<path d="M0 0 C0.33 0.99 0.66 1.98 1 3 C-0.109375 5.0078125 -0.109375 5.0078125 -1.75 7.125 C-2.28109375 7.82882812 -2.8121875 8.53265625 -3.359375 9.2578125 C-5 11 -5 11 -8 12 C-6.42527704 7.53828494 -4.40622971 2.20311486 0 0 Z " fill="#414142" transform="translate(221,606)"/>
<path d="M0 0 C-1.59092052 4.13639336 -4.60474918 7.23213248 -8 10 C-8.66 10 -9.32 10 -10 10 C-10 10.99 -10 11.98 -10 13 C-10.66 13 -11.32 13 -12 13 C-10.66182195 9.02031425 -8.99662286 6.61251238 -6 3.6875 C-5.29875 2.99011719 -4.5975 2.29273438 -3.875 1.57421875 C-2 0 -2 0 0 0 Z " fill="#313232" transform="translate(372,547)"/>
<path d="M0 0 C3.7102381 3.45435961 6.83840258 6.57603873 7.1875 11.8125 C7.125625 12.534375 7.06375 13.25625 7 14 C3.6985981 11.19380839 1.94330317 7.81959588 0 4 C0 2.68 0 1.36 0 0 Z " fill="#C3C3C4" transform="translate(221,533)"/>
<path d="M0 0 C0.33 0.66 0.66 1.32 1 2 C1.99 2.33 2.98 2.66 4 3 C7.94656963 6.83893591 11.41309409 11.13053005 14 16 C13.34 16 12.68 16 12 16 C10.44921875 14.42578125 10.44921875 14.42578125 8.6875 12.3125 C6.57046411 9.80571692 4.46319546 7.42357635 2.0625 5.1875 C0 3 0 3 0 0 Z " fill="#E3E4E6" transform="translate(926,726)"/>
<path d="M0 0 C0.33 0.99 0.66 1.98 1 3 C2.32 3.66 3.64 4.32 5 5 C0.545 6.485 0.545 6.485 -4 8 C-4 8.66 -4 9.32 -4 10 C-4.66 9.67 -5.32 9.34 -6 9 C-4.02 6.03 -2.04 3.06 0 0 Z " fill="#BABBBD" transform="translate(798,607)"/>
<path d="M0 0 C0 2.31 0 4.62 0 7 C0.66 7.33 1.32 7.66 2 8 C0.02 8.66 -1.96 9.32 -4 10 C-3.88637738 8.5199159 -3.75877092 7.04089926 -3.625 5.5625 C-3.55539063 4.73878906 -3.48578125 3.91507813 -3.4140625 3.06640625 C-3.27742187 2.38449219 -3.14078125 1.70257812 -3 1 C-1 0 -1 0 0 0 Z " fill="#D1D2D2" transform="translate(232,586)"/>
<path d="M0 0 C0.33 0.66 0.66 1.32 1 2 C1.99 2.33 2.98 2.66 4 3 C4 3.66 4 4.32 4 5 C4.99 5.33 5.98 5.66 7 6 C-3.16666667 4.83333333 -3.16666667 4.83333333 -6 2 C-4.02 1.34 -2.04 0.68 0 0 Z " fill="#E1E2E4" transform="translate(998,662)"/>
<path d="M0 0 C2.97 0.495 2.97 0.495 6 1 C6 1.99 6 2.98 6 4 C6.66 4.33 7.32 4.66 8 5 C7.67 5.66 7.34 6.32 7 7 C5.02 6.34 3.04 5.68 1 5 C1.66 4.34 2.32 3.68 3 3 C1.68 3 0.36 3 -1 3 C-0.67 2.01 -0.34 1.02 0 0 Z " fill="#E5E6E8" transform="translate(857,628)"/>
<path d="M0 0 C0 1.32 0 2.64 0 4 C-2.25 4.3125 -2.25 4.3125 -5 4 C-7.3125 1.5 -7.3125 1.5 -9 -1 C-3.375 -2.25 -3.375 -2.25 0 0 Z " fill="#E3E4E5" transform="translate(850,630)"/>
<path d="M0 0 C0.66 0.33 1.32 0.66 2 1 C0.56877218 2.48523642 -0.87020889 3.96300462 -2.3125 5.4375 C-3.11300781 6.26121094 -3.91351562 7.08492187 -4.73828125 7.93359375 C-7 10 -7 10 -10 11 C-8.55218207 7.55571735 -6.72305391 5.63869038 -3.875 3.25 C-3.15054688 2.63640625 -2.42609375 2.0228125 -1.6796875 1.390625 C-0.84824219 0.70226562 -0.84824219 0.70226562 0 0 Z " fill="#313132" transform="translate(737,546)"/>
<path d="M0 0 C0 0.66 0 1.32 0 2 C1.32 1.67 2.64 1.34 4 1 C4.33 1.99 4.66 2.98 5 4 C2.8535247 3.88655624 0.70779408 3.75893655 -1.4375 3.625 C-2.63246094 3.55539062 -3.82742188 3.48578125 -5.05859375 3.4140625 C-6.02925781 3.27742187 -6.99992188 3.14078125 -8 3 C-8.33 2.34 -8.66 1.68 -9 1 C-5.846632 0.29925156 -3.27275026 0 0 0 Z " fill="#E5E6E8" transform="translate(967,655)"/>
<path d="M0 0 C3.26925766 3.26925766 4.125 5.66683692 4.125 10.25 C4.08375 11.4875 4.0425 12.725 4 14 C1.46564334 11.7962116 0.46308519 10.33421339 0 7 C-0.03888349 4.66699067 -0.0448635 2.33290199 0 0 Z " fill="#CBCDCC" transform="translate(230,554)"/>
<path d="M0 0 C0.66 0.33 1.32 0.66 2 1 C0.71451591 2.33929505 -0.57858155 3.67128643 -1.875 5 C-2.59429687 5.7425 -3.31359375 6.485 -4.0546875 7.25 C-6 9 -6 9 -8 9 C-8 9.66 -8 10.32 -8 11 C-8.66 10.67 -9.32 10.34 -10 10 C-3.84965831 2.51708428 -3.84965831 2.51708428 0 0 Z " fill="#3C3C3C" transform="translate(154,409)"/>
<path d="M0 0 C3.63 0 7.26 0 11 0 C10.01 0.66 9.02 1.32 8 2 C9.65 3.65 11.3 5.3 13 7 C9.514542 5.74136239 6.91813877 4.25920421 4 2 C2.68 1.34 1.36 0.68 0 0 Z " fill="#F1F2F2" transform="translate(373,0)"/>
<path d="M0 0 C1.8141927 0.28094582 3.62635001 0.57506433 5.4375 0.875 C6.95150391 1.11863281 6.95150391 1.11863281 8.49609375 1.3671875 C9.32238281 1.57601562 10.14867187 1.78484375 11 2 C11.33 2.66 11.66 3.32 12 4 C9.69 4 7.38 4 5 4 C5 3.34 5 2.68 5 2 C3.02 2 1.04 2 -1 2 C-0.67 1.34 -0.34 0.68 0 0 Z " fill="#E1E2E4" transform="translate(943,652)"/>
<path d="M0 0 C-0.33 0.99 -0.66 1.98 -1 3 C-0.01 3.66 0.98 4.32 2 5 C-0.31 5 -2.62 5 -5 5 C-5 4.01 -5 3.02 -5 2 C-2 0 -2 0 0 0 Z " fill="#545455" transform="translate(188,638)"/>
<path d="M0 0 C0.99 0 1.98 0 3 0 C2.33333333 3.33333333 1.66666667 6.66666667 1 10 C0.34 9.67 -0.32 9.34 -1 9 C-0.125 4.25 -0.125 4.25 1 2 C0.34 1.67 -0.32 1.34 -1 1 C-0.67 0.67 -0.34 0.34 0 0 Z " fill="#999A9C" transform="translate(200,629)"/>
<path d="M0 0 C-1.49097658 3.7952131 -3.75700849 5.61042731 -7 8 C-7 5 -7 5 -4.625 2.3125 C-2 0 -2 0 0 0 Z " fill="#AFB0B2" transform="translate(389,562)"/>
<path d="M0 0 C-0.99 2.97 -1.98 5.94 -3 9 C-3.66 8.67 -4.32 8.34 -5 8 C-5.36625971 3.48279689 -5.36625971 3.48279689 -3.625 1.1875 C-2 0 -2 0 0 0 Z " fill="#9E9FA0" transform="translate(943,560)"/>
<path d="M0 0 C0.66 0.33 1.32 0.66 2 1 C-1.96 4.465 -1.96 4.465 -6 8 C-6 5 -6 5 -4.6875 3.61328125 C-3.125 2.40885417 -1.5625 1.20442708 0 0 Z " fill="#39393A" transform="translate(926,544)"/>
<path d="M0 0 C0.66 0.33 1.32 0.66 2 1 C1.0479279 2.00596297 0.08812654 3.00461563 -0.875 4 C-1.40867188 4.556875 -1.94234375 5.11375 -2.4921875 5.6875 C-4 7 -4 7 -6 7 C-4.60667426 3.63279613 -3.0210714 2.0140476 0 0 Z " fill="#BCBDBC" transform="translate(183,437)"/>
<path d="M0 0 C0.66 0 1.32 0 2 0 C2 0.99 2 1.98 2 3 C2.99 3 3.98 3 5 3 C4.67 4.65 4.34 6.3 4 8 C3.34 8 2.68 8 2 8 C1.34 5.36 0.68 2.72 0 0 Z " fill="#2A2B2A" transform="translate(190,642)"/>
<path d="M0 0 C2.625 0.9375 2.625 0.9375 5 2 C5 2.66 5 3.32 5 4 C2.03 3.67 -0.94 3.34 -4 3 C-2 1 -2 1 0 0 Z " fill="#E6E7E8" transform="translate(828,629)"/>
<path d="M0 0 C1.65 0.99 3.3 1.98 5 3 C4.67 3.99 4.34 4.98 4 6 C2.68 6 1.36 6 0 6 C0 4 0 2 0 0 Z " fill="#E3E4E6" transform="translate(789,621)"/>
<path d="M0 0 C3.48539917 0.64544429 6.02819057 2.10134397 9 4 C8.34 4.66 7.68 5.32 7 6 C5.83054208 5.19152271 4.66449539 4.37810888 3.5 3.5625 C2.8503125 3.11003906 2.200625 2.65757812 1.53125 2.19140625 C1.0259375 1.79824219 0.520625 1.40507813 0 1 C0 0.67 0 0.34 0 0 Z " fill="#525353" transform="translate(196,511)"/>
</svg>
